<svg xmlns="http://www.w3.org/2000/svg" viewBox="0 0 256 256" enable-background="new 0 0 256 256"><style type="text/css">.st0{fill:#4F9AD4;}</style><path class="st0" d="M41.7 109.1s-1.8-4.4-1.8-9.9l1.8-9.9c-.3 0-37.3 9.9-37.3 9.9s37 9.9 37.3 9.9zM217.1 89.3s1.8 4.4 1.8 9.9l-1.8 9.9c.3 0 37.3-9.9 37.3-9.9s-37-9.9-37.3-9.9z"/><circle class="st0" cx="91.1" cy="98.6" r="11.2"/><path class="st0" d="M197.8 84.8c1.4 0 2.6 1.2 2.6 2.6v23.6c0 1.4-1.2 2.6-2.6 2.6h-136.7c-1.4 0-2.6-1.2-2.6-2.6v-23.6c0-1.4 1.2-2.6 2.6-2.6h136.7m0-13.4h-136.7c-8.9 0-16 7.2-16 16v23.6c0 8.9 7.2 16 16 16h136.7c8.9 0 16-7.2 16-16v-23.6c0-8.9-7.2-16-16-16zM128.4 167.3c-20.3 0-37.4 30.6-37.4 66.8 0 4.1.2 8.2.7 12.1 10.4 3.3 23 5.2 36.7 5.2s26.3-1.9 36.7-5.2c.4-3.9.7-8 .7-12.1 0-36.2-17.1-66.8-37.4-66.8zm-22.5 65.2c0 2.4-2 4.4-4.4 4.4-2.4 0-4.4-2-4.4-4.4v-15.4c0-2.4 2-4.4 4.4-4.4 2.4 0 4.4 2 4.4 4.4v15.4zm17.7 0c0 2.4-2 4.4-4.4 4.4-2.4 0-4.4-2-4.4-4.4v-15.4c0-2.4 2-4.4 4.4-4.4 2.4 0 4.4 2 4.4 4.4v15.4zm17.8 0c0 2.4-2 4.4-4.4 4.4-2.4 0-4.4-2-4.4-4.4v-15.4c0-2.4 2-4.4 4.4-4.4s4.4 2 4.4 4.4v15.4zm17.7 0c0 2.4-2 4.4-4.4 4.4-2.4 0-4.4-2-4.4-4.4v-15.4c0-2.4 2-4.4 4.4-4.4 2.4 0 4.4 2 4.4 4.4v15.4zM64.7 115.5v11.5h92.3c1.7 0 3.1 1.4 3.1 3.1 0 1.7-1.4 3.1-3.1 3.1h-92.3v89.8c0 7.6 6.8 14.6 17.8 19.7-.2-2.8-.3-5.7-.3-8.6 0-42.4 20.3-75.6 46.2-75.6 25.9 0 46.2 33.2 46.2 75.6 0 2.9-.1 5.8-.3 8.6 11-5.1 17.8-12 17.8-19.7v-107.5h-127.4zM128.4 57.7c-2.2 0-4-1.8-4-4s1.8-4 4-4h63.2c-.7-2.2-1.6-4.4-2.5-6.5h-37.5c-3.7 0-6.7-3-6.7-6.7s3-6.7 6.7-6.7h29.8c-12.2-16.5-31.4-26.8-53-26.8-33.9 0-61.8 25.3-66 59.8h132.1c-.2-1.7-.5-3.4-.9-5.1h-65.2zm4.6-28.3c3.9 0 7 3.1 7 7s-3.1 7-7 7-7-3.1-7-7c0-3.8 3.2-7 7-7z"/></svg>